# xmcd CD database file
#
# Track frame offsets:
#	180
#	23668
#	43809
#	67109
#	93246
#	113299
#	140753
#	163305
#	183677
#	209524
#	228983
#	252619
#	279124
#	300812
#
# Disc length: 4321 seconds
#
# Revision: 0
# Processed by: cddbd v1.5.2PL0 Copyright (c) Steve Scherf et al.
# Submitted via: CDex 1.51
#
DISCID=c210df0e
DTITLE=Guayacan - Lo mejor de Guayacan Vol. 1
DYEAR=1998
DGENRE=Salsa
TTITLE0=Invierno en Primavera
TTITLE1=Torero
TTITLE2=Como una Hoguera
TTITLE3=Muchachita
TTITLE4=Cuanto te Quiero, Cuanto te Amo
TTITLE5=Pasodobles
TTITLE6=Y me Dejaste
TTITLE7=Llego el Amor
TTITLE8=Cocorobe
TTITLE9=Mas que Sexo
TTITLE10=Teresita
TTITLE11=No vale la pena hablar mal de ti
TTITLE12=Mi billete
TTITLE13=Un amor a Cuentagotas
EXTD=YEAR: 1998
EXTT0=
EXTT1=
EXTT2=
EXTT3=
EXTT4=
EXTT5=
EXTT6=
EXTT7=
EXTT8=
EXTT9=
EXTT10=
EXTT11=
EXTT12=
EXTT13=
PLAYORDER=
